<svg version="1.1" id="Layer_1" xmlns="http://www.w3.org/2000/svg" xmlns:xlink="http://www.w3.org/1999/xlink" x="0px" y="0px"
	 viewBox="-195.8 352.1 101.5 86.9" style="enable-background:new -195.8 352.1 101.5 86.9;" xml:space="preserve">
		<path d="M-175.6,377.1c7.7-1.2,13.2,3.6,13.6,11.3C-169,390.5-175.4,385.4-175.6,377.1z"/>
		<path d="M-109.4,378.2c1.2,7.3-4.6,13.1-12.6,12.3C-122.9,383-117.2,377.4-109.4,378.2z"/>
		<path d="M-147,375c6.9,4.4,8.1,11.9,3.1,17.7C-150.5,389.1-151.9,381.5-147,375z"/>
		<path d="M-136.9,398.8c-0.1-8.4,4.8-13.2,12.6-12.6c1,3.5-0.5,6.3-2.7,8.9C-129.6,398.1-132.6,399.5-136.9,398.8z"/>
		<path d="M-178.4,416.4c1.2-8.3,7.8-12.5,14.9-9.8C-164.3,413.9-170.2,417.9-178.4,416.4z"/>
		<path d="M-183,390c7.3-3.2,13.3-0.6,16.4,6.9C-173.3,400.9-180.2,398.1-183,390z"/>
		<path d="M-97.3,383.9c-1.3,8-8.1,11.7-15.4,8.9C-111.1,385.1-105.7,381.9-97.3,383.9z"/>
		<path d="M-163.6,416.2c1.3-4.8,4-6.2,8.5-4C-157,416.9-158.8,417.9-163.6,416.2z"/>
		<path d="M-154.8,399c-5.3,0.9-6.6,0.2-8.8-4.3C-159.5,392.5-156.7,393.8-154.8,399z"/>
		<path d="M-123.1,397.6c2.9-4.2,4.4-4.7,8.8-2.9C-116.2,399.8-119.7,400.8-123.1,397.6z"/>
		<path d="M-175.6,403.9c-2.5,4.7-4.4,5.4-9.1,3.5C-183.1,403.1-181.4,402.4-175.6,403.9z"/>
		<path d="M-114,400c3.5-3.9,5-4.3,9.1-2.1C-106.8,402.6-110.5,403.4-114,400z"/>
<path d="M-141.6,416.5c3.7-13.3,22.7-14.3,22.7-14.3s-16.6-3.7-24,5.7c0,0,1.2-15.4,17-31.3c0,0-13.9,9.8-19.5,22.5
	c-0.2,0.4-0.4,0.9-0.5,1.3c-1.1-3.1-6.3-15.6-14.7-16.3c0,0,7.9,3.6,10.8,20.8c0,0-13.7-6.4-27.9-4.8c0,0,26.3,3.7,27.8,16.9
	c0.4,3.7,4.2,14.9-9.6,17.8c0,0,21.2-0.6,28.9,0.1c-10.4-3.3-11.1-7.2-11.3-10.5C-142.3,418.3-141.6,416.5-141.6,416.5z"/>
<path d="M-127.5,407.2c7-2.7,13.7,1.5,14.9,9.8C-120.9,418.5-126.8,414.6-127.5,407.2z"/>
<path d="M-136,412.8c4.5-2.1,7.2-0.8,8.5,4C-132.3,418.5-134.1,417.5-136,412.8z"/>
<path d="M-106.4,408c-4.7,1.9-6.6,1.2-9.1-3.5C-109.7,403-108,403.7-106.4,408z"/>
<path d="M-181.1,399.3c-4.1,3-6.1,2.7-9.7-1.2C-185.5,395.2-183.7,395.5-181.1,399.3z"/>
<path d="M-185.5,380.8c4.4-2.4,7.2-1.3,8.7,3.4C-181.5,386-183.4,385.3-185.5,380.8z"/>
<path d="M-158,376c5,0.1,7,2.3,6,7.2C-157,382.6-158.4,381.1-158,376z"/>
<path d="M-138.4,382.8c-1.4-4.8,0.2-7.3,5.1-7.9C-132.4,379.9-133.5,381.7-138.4,382.8z"/>
<path d="M-129.8,358.7c2.9,7.7-0.6,14.4-8.1,16.1C-141.1,367.9-137.6,360.9-129.8,358.7z"/>
<path d="M-114.3,357.7c0.4,8.2-5,13.5-12.6,12.8C-127.8,363-122.4,357.5-114.3,357.7z"/>
<path d="M-150.5,375.9c-7.4-2-10.6-8.9-7.3-16.4C-150.1,362.1-147,369.2-150.5,375.9z"/>
<path d="M-161.4,375.8c-7.5,1.9-13.6-2.5-14.5-10.6C-167.9,363.6-161.7,368.2-161.4,375.8z"/>
<path d="M-184.3,370.8c4.7-1.8,7.3-0.4,8.2,4.5C-180.9,376.5-182.8,375.6-184.3,370.8z"/>
<path d="M-192.6,387.6c4.7-1.7,7.3-0.2,8.2,4.7C-189.4,393.4-191.2,392.4-192.6,387.6z"/>
<path d="M-124,377.8c0.5-5,3-6.7,7.8-5.3C-117.4,377.4-119,378.7-124,377.8z"/>
<path d="M-114.3,375.5c0.8-4.9,3.3-6.5,8-4.9C-107.7,375.5-109.4,376.6-114.3,375.5z"/>
<path d="M-106.4,380.3c1.2-4.8,3.9-6.2,8.4-4.1C-99.8,380.9-101.6,381.9-106.4,380.3z"/>
<path d="M-167.3,358c5,0.4,6.8,2.8,5.5,7.6C-166.7,364.6-168,363-167.3,358z"/>
<path d="M-149.5,357.4c4.7,1.8,5.7,4.6,3.1,8.9C-150.8,363.9-151.6,362-149.5,357.4z"/>
<path d="M-139.6,354.9c3,4,2.3,7-2.1,9.2C-144.2,359.6-143.8,357.6-139.6,354.9z"/>
<path d="M-141.7,365.5c3,4,2.3,7-2.1,9.2C-146.3,370.3-145.9,368.2-141.7,365.5z"/>
<script  type="text/javascript">
	<![CDATA[
		 var c=window.location.search.split('color=')[1]; c=parseInt(c,16); if(!isNaN(c)){c=c.toString(16);var p=document.getElementsByTagName('path');for(var i=0,l=p.length;i<l;i++){p[i].style.fill='#'+c;};var r=document.getElementsByTagName('rect');for(var j=0,l=r.length;j<l;j++){r[j].style.fill='#'+c;}} 
		]]>
</script>
</svg>
